<svg width="20" height="15" viewBox="0 0 20 15" fill="none" xmlns="http://www.w3.org/2000/svg">
<path d="M10.0968 15C10.029 15 10 15 9.99032 15C9.9516 15 9.92256 15 9.88383 15C2.9332 15 0.106486 7.8 0.0871249 7.73226L0 7.5L0.0871249 7.26774C0.116167 7.2 2.9332 0 9.92256 0C9.97096 0 10 0 10.0968 0C10.9874 0 17.2314 0.261291 19.9129 7.26774L20 7.5L19.9129 7.73226C17.2314 14.7484 10.9874 15 10.0968 15ZM10.0194 13.7129C10.3001 13.7226 16.0407 13.8968 18.6254 7.5C16.0407 1.10323 10.3001 1.2871 10.0581 1.2871H10.0194C9.99032 1.2871 9.96128 1.2871 9.93224 1.2871C4.42401 1.2871 1.89739 6.33871 1.394 7.5C1.89739 8.67097 4.48209 13.8097 10.0194 13.7129Z" fill="#6F6F6F"/>
<path d="M10 11.2257C7.94777 11.2257 6.28271 9.5612 6.28271 7.50959C6.28271 5.45797 7.94777 3.79346 10 3.79346C12.0523 3.79346 13.7174 5.45797 13.7174 7.50959C13.7174 9.55152 12.0523 11.2257 10 11.2257ZM10 5.07088C8.65445 5.07088 7.57023 6.16442 7.57023 7.49991C7.57023 8.84507 8.66413 9.92894 10 9.92894C11.3456 9.92894 12.4299 8.83539 12.4299 7.49991C12.4299 6.16442 11.3456 5.07088 10 5.07088Z" fill="#6F6F6F"/>
</svg>
