<svg width="15" height="13" viewBox="0 0 15 13" fill="none" xmlns="http://www.w3.org/2000/svg">
<path d="M7.3024 0.909302C6.27931 0.909302 5.29884 1.14376 4.38232 1.52742L5.0786 2.22369C5.78197 1.96792 6.52798 1.81872 7.3024 1.81872C10.123 1.81872 12.6594 3.64465 13.6612 6.38001C13.2775 7.42441 12.6736 8.32672 11.9134 9.05852L12.5529 9.69795C13.441 8.83827 14.1514 7.76544 14.5706 6.52921C14.6061 6.43684 14.6061 6.33027 14.5706 6.23791C13.4836 3.05495 10.5635 0.909302 7.3024 0.909302Z" fill="#6F6F6F"/>
<path d="M9.11395 6.25944L9.93811 7.0836C9.99495 6.85625 10.0376 6.62889 10.0376 6.38733C10.0376 4.88111 8.80845 3.65198 7.30223 3.65198C7.06067 3.65198 6.82621 3.69461 6.60596 3.75145L7.43011 4.5756C8.33243 4.63244 9.05001 5.35713 9.11395 6.25944Z" fill="#6F6F6F"/>
<path d="M0.914744 0.646538L2.76199 2.49379C1.53997 3.41741 0.559504 4.68917 0.026643 6.23802C-0.00888101 6.33039 -0.00888101 6.43696 0.026643 6.52932C1.11368 9.71228 4.04086 11.8579 7.30197 11.8579C8.65899 11.8579 9.93785 11.4601 11.0675 10.7993L13.0427 12.7744L13.6892 12.1279L1.56128 0L0.914744 0.646538ZM7.30197 10.9485C4.48136 10.9485 1.94494 9.12258 0.943164 6.38722C1.4334 5.03731 2.3215 3.94317 3.41564 3.14743L5.07106 4.80285C4.75845 5.25045 4.56662 5.79753 4.56662 6.38722C4.56662 7.89344 5.79575 9.12258 7.30197 9.12258C7.89167 9.12258 8.43874 8.93075 8.87924 8.61103L10.3997 10.1315C9.46183 10.6359 8.41032 10.9485 7.30197 10.9485ZM5.73891 5.4636L8.22559 7.95028C7.95561 8.11369 7.643 8.20606 7.30197 8.20606C6.29309 8.20606 5.47603 7.389 5.47603 6.38012C5.47603 6.04619 5.5755 5.73358 5.73891 5.4636Z" fill="#6F6F6F"/>
</svg>
